<svg xmlns="http://www.w3.org/2000/svg" width="83" height="83" viewBox="0 0 83 83"><path d="M83,41.5a41.286,41.286,0,0,1-5.422,20.521c-.254.447-.539.925-.852,1.428A41.655,41.655,0,0,1,58.2,79.5a40.919,40.919,0,0,1-3.887,1.48q-1.174.381-2.377.693-1.065.277-2.151.5A41.5,41.5,0,1,1,38.908.08q.808-.051,1.623-.068h.007C40.858,0,41.178,0,41.5,0A41.5,41.5,0,0,1,83,41.5Z" fill="#5c5560"/><path d="M346.01,111.513c-.254.447-.539.925-.852,1.428A41.655,41.655,0,0,1,326.63,129a40.922,40.922,0,0,1-3.887,1.48q-1.174.381-2.377.693l5.215-72.1,6.484,5.673,6.97.163Z" transform="translate(-268.432 -49.492)" fill="#3e8e33"/><path d="M96.8,10.524c-1.768-4.607-4.573-8.717-9.174-7.983A5.94,5.94,0,0,0,83.113.012h-.007C82.975,0,82.841,0,82.7,0a9.43,9.43,0,0,0-1.22.08c-7.152.937-13.007,10-15.206,20.354l-10,3.245L50.813,66.322A41.722,41.722,0,0,0,61.73,76.475l30.629,5.7a40.86,40.86,0,0,0,4.528-1.189L99.725,9.575ZM69.447,19.405a75.716,75.716,0,0,1,3.368-8.534C74.761,6.82,81.083.983,84.65,3.171a3.554,3.554,0,0,1,.308.213c-4.1,1.89-7.312,6.31-8.952,13.891Zm17.991-5.841-8.044,2.61s1.535-8.347,7.219-10.4C87.87,9.006,87.438,13.565,87.438,13.565ZM90.4,12.6A23.7,23.7,0,0,0,89.14,5.407c2.915.3,4.411,3.427,5.148,5.934Z" transform="translate(-42.576 0)" fill="#7fc029"/><path d="M113.286,206.5a22.662,22.662,0,0,0,4.6,2.813,10.2,10.2,0,0,0,2.245.653,3.334,3.334,0,0,0,3.552-1.182,3.716,3.716,0,0,0,.147-3.991,7.081,7.081,0,0,0-1.894-2.3q-1.463-1.28-2.952-2.53c-3.215-2.712-4.21-6.23-3.644-10.262a14.831,14.831,0,0,1,13.284-12.913,19.942,19.942,0,0,1,8.958.651c.659.223.725.491.514,1.1q-1.38,3.972-2.672,7.974c-.174.539-.317.628-.868.4a12.739,12.739,0,0,0-7.028-1.06c-1.706.286-3.076,1.034-3.556,2.848a3.178,3.178,0,0,0,1.018,3.231,44.143,44.143,0,0,0,4.108,3.286,16.374,16.374,0,0,1,4.313,4.563,12.762,12.762,0,0,1,.95,10.341c-1.7,5.975-6.828,9.2-13,8.42a17.57,17.57,0,0,1-9.5-4.113,1.465,1.465,0,0,1-.545-1.859c.643-1.8,1.134-3.655,1.686-5.488C113.06,206.885,113.069,206.661,113.286,206.5Z" transform="translate(-93.157 -147.951)" fill="#fdfefd"/></svg>