<svg xmlns="http://www.w3.org/2000/svg" width="83" height="73.915" viewBox="0 0 83 73.915"><g transform="translate(-175.7 -78)"><path d="M258.7,114.966c0-5.5-6.886-10.709-17.443-13.94,2.436-10.76,1.353-19.32-3.417-22.061a7.417,7.417,0,0,0-3.79-.947V81.79a3.918,3.918,0,0,1,1.929.44c2.3,1.32,3.3,6.344,2.521,12.807-.186,1.59-.491,3.265-.863,4.974a81.988,81.988,0,0,0-10.743-1.844,82.528,82.528,0,0,0-7.038-8.459c5.515-5.126,10.692-7.935,14.211-7.935V78h0c-4.652,0-10.743,3.316-16.9,9.068-6.158-5.718-12.249-9-16.9-9V81.84c3.5,0,8.7,2.791,14.211,7.884a79.9,79.9,0,0,0-6.987,8.442,79,79,0,0,0-10.76,1.861c-.389-1.692-.677-3.333-.88-4.906-.8-6.463.186-11.487,2.47-12.824a3.765,3.765,0,0,1,1.946-.44V78.085h0a7.543,7.543,0,0,0-3.823.947c-4.754,2.741-5.82,11.284-3.367,22.01-10.523,3.248-17.375,8.442-17.375,13.924,0,5.5,6.886,10.709,17.443,13.94-2.436,10.76-1.353,19.32,3.417,22.061a7.437,7.437,0,0,0,3.807.947c4.652,0,10.743-3.316,16.9-9.068,6.158,5.718,12.249,9,16.9,9a7.544,7.544,0,0,0,3.823-.947c4.754-2.741,5.82-11.284,3.367-22.01C251.848,125.658,258.7,120.447,258.7,114.966Zm-22.027-11.284c-.626,2.182-1.4,4.433-2.284,6.683-.694-1.353-1.421-2.707-2.216-4.06-.778-1.353-1.607-2.673-2.436-3.959C232.139,102.7,234.457,103.14,236.673,103.682ZM228.924,121.7c-1.32,2.284-2.673,4.449-4.077,6.463-2.521.22-5.075.338-7.647.338-2.555,0-5.109-.118-7.613-.321q-2.106-3.02-4.094-6.429-1.929-3.324-3.519-6.733c1.049-2.267,2.233-4.534,3.5-6.75,1.32-2.284,2.673-4.449,4.077-6.463,2.521-.22,5.075-.338,7.647-.338,2.555,0,5.109.118,7.613.321q2.106,3.02,4.094,6.429,1.929,3.324,3.519,6.733C231.361,117.216,230.193,119.483,228.924,121.7Zm5.465-2.2c.914,2.267,1.692,4.534,2.335,6.733-2.216.541-4.551,1-6.97,1.353.829-1.3,1.658-2.639,2.436-4.01C232.968,122.224,233.7,120.853,234.389,119.5Zm-17.155,18.052a69.751,69.751,0,0,1-4.7-5.414c1.523.068,3.079.118,4.652.118,1.59,0,3.164-.034,4.7-.118A66.036,66.036,0,0,1,217.234,137.552Zm-12.587-9.965c-2.4-.355-4.72-.8-6.936-1.337.626-2.182,1.4-4.433,2.284-6.683.694,1.353,1.421,2.707,2.216,4.06S203.818,126.3,204.647,127.587Zm12.5-35.206a69.743,69.743,0,0,1,4.7,5.414c-1.523-.068-3.079-.118-4.652-.118-1.59,0-3.164.034-4.7.118A66.037,66.037,0,0,1,217.149,92.38Zm-12.519,9.965c-.829,1.3-1.658,2.639-2.436,4.01-.778,1.353-1.506,2.707-2.2,4.06-.914-2.267-1.692-4.534-2.335-6.733C199.876,103.157,202.211,102.7,204.63,102.345Zm-15.311,21.181c-5.989-2.555-9.863-5.9-9.863-8.561s3.874-6.023,9.863-8.561c1.455-.626,3.045-1.184,4.686-1.709a81.259,81.259,0,0,0,3.807,10.3,80.108,80.108,0,0,0-3.756,10.252C192.381,124.728,190.791,124.152,189.319,123.527Zm9.1,24.176c-2.3-1.32-3.3-6.344-2.521-12.807.186-1.59.491-3.265.863-4.974a81.988,81.988,0,0,0,10.743,1.844,82.528,82.528,0,0,0,7.038,8.459c-5.515,5.126-10.692,7.935-14.211,7.935A4.037,4.037,0,0,1,198.421,147.7Zm40.13-12.892c.8,6.463-.186,11.487-2.47,12.824a3.765,3.765,0,0,1-1.946.44c-3.5,0-8.7-2.791-14.211-7.884a79.906,79.906,0,0,0,6.987-8.442,79,79,0,0,0,10.76-1.861A47.361,47.361,0,0,1,238.551,134.811Zm6.513-11.284c-1.455.626-3.045,1.184-4.686,1.709a81.255,81.255,0,0,0-3.807-10.3,80.109,80.109,0,0,0,3.756-10.252c1.675.524,3.265,1.1,4.754,1.726,5.989,2.555,9.863,5.9,9.863,8.561C254.927,117.622,251.053,120.989,245.064,123.527Z" fill="#61dafb"/><path d="M320.8,78.4Z" transform="translate(-120.552 -0.332)" fill="#61dafb"/><circle cx="7.732" cy="7.732" r="7.732" transform="translate(209.452 107.234)" fill="#61dafb"/><path d="M520.5,78.1Z" transform="translate(-286.466 -0.083)" fill="#61dafb"/></g></svg>