<svg xmlns="http://www.w3.org/2000/svg" xmlns:xlink="http://www.w3.org/1999/xlink" width="83" height="83" viewBox="0 0 83 83"><defs><clipPath id="a"><rect width="83" height="83" transform="translate(1108 522)" fill="#fff" stroke="#707070" stroke-width="1"/></clipPath></defs><g transform="translate(-1108 -522)" clip-path="url(#a)"><g transform="translate(1108 522)"><g transform="translate(0 0)"><circle cx="41.5" cy="41.5" r="41.5" fill="#c69"/></g><path d="M85.92,43.854a7.659,7.659,0,0,0-4.067-4.814c-4.233-2.241-11.039-2.324-17.264-.083-3.735,1.328-10.79,4.316-16.1,9.213-5.312,4.98-6.142,9.379-5.727,11.122.913,4.814,5.976,8.217,9.96,11.039a31.388,31.388,0,0,1,2.822,2.075c-2.241,1.162-8.3,4.565-9.96,8.134a6.6,6.6,0,0,0-.166,5.81,3.906,3.906,0,0,0,2.158,2.158,9.325,9.325,0,0,0,2.656.332,11.216,11.216,0,0,0,9.213-5.146,12.092,12.092,0,0,0,1.328-10.209,13.8,13.8,0,0,1,4.565-.166c3.237.415,4.814,1.66,5.561,2.656A3.989,3.989,0,0,1,71.81,78.8a3.481,3.481,0,0,1-1.66,2.324c-.415.249-.747.5-.664,1,.166.664.83.581,1.079.581a5.119,5.119,0,0,0,3.569-4.482,7.073,7.073,0,0,0-2.075-5.146,10.089,10.089,0,0,0-7.719-2.822,16.081,16.081,0,0,0-5.146.664l-.083-.083a44.357,44.357,0,0,0-4.15-3.569c-3.32-2.49-6.391-4.9-6.225-8.466.249-4.482,4.648-8.881,13.2-13.114,7.553-3.735,13.695-3.9,16.932-2.739a4.368,4.368,0,0,1,2.573,1.909c.664,1.411.415,3.237-.747,5.229-1.909,3.32-6.723,7.47-14.11,8.3-4.482.5-6.391-1.494-6.474-1.577-.5-.581-.83-.913-1.411-.581-.664.332-.332,1.245-.166,1.577a6.859,6.859,0,0,0,4.15,3.32c1.909.664,6.806,1.079,12.865-1.245C82.517,57.051,87.331,49.581,85.92,43.854ZM57.285,79.212c-.083.166-.083.332-.166.5a1.179,1.179,0,0,0-.166.5,7.223,7.223,0,0,1-1.494,2.158c-1.909,2.075-4.482,2.656-5.312,2.158a1.117,1.117,0,0,1-.415-.747,6.324,6.324,0,0,1,2.158-4.731,23.311,23.311,0,0,1,5.644-4.067A9.033,9.033,0,0,1,57.285,79.212Z" transform="translate(-22.093 -20.78)" fill="#fff"/></g></g></svg>