<svg xmlns="http://www.w3.org/2000/svg" xmlns:xlink="http://www.w3.org/1999/xlink" width="83" height="83" viewBox="0 0 83 83"><defs><clipPath id="a"><rect width="83" height="83" transform="translate(1120 264)" fill="#fff" stroke="#707070" stroke-width="1"/></clipPath></defs><g transform="translate(-1120 -264)" clip-path="url(#a)"><g transform="translate(1120 264)"><circle cx="41.5" cy="41.5" r="41.5" fill="#0769ad"/><g transform="translate(15.56 16.504)"><path d="M23.915,35.978c-4.588,6.6-4.02,15.19-.518,22.209.081.162.178.324.26.5.048.113.113.211.162.324.032.065.065.113.1.178.065.113.113.211.178.324.113.195.226.389.34.567.065.113.13.211.195.308.13.195.26.405.389.616.048.081.113.178.162.26.178.275.373.535.567.81l.016.016c.032.048.065.081.1.13.162.226.34.453.519.679l.195.243c.162.195.308.389.47.583.065.065.113.146.178.211.211.26.438.5.665.762l.016.016.032.032c.211.243.438.47.665.713a2.582,2.582,0,0,0,.211.211l.535.535c.081.065.146.146.226.211.243.226.487.453.73.665h.016c.048.032.081.081.13.113.226.195.438.373.665.567l.275.226c.178.146.373.292.551.438.1.081.195.146.292.226.211.146.405.308.616.453a1.967,1.967,0,0,0,.226.162c.016.016.048.032.065.048.195.146.405.275.616.405.081.065.178.113.26.178.308.195.632.389.957.583.081.048.178.1.26.146.243.13.47.26.713.405l.389.195c.178.081.34.178.5.26a.407.407,0,0,1,.113.065c.065.032.146.065.211.1.26.13.535.26.81.373.065.032.113.048.178.081.308.146.632.275.94.389.081.032.146.065.226.1.292.113.583.226.892.324.032.016.081.016.113.032.324.113.665.226.989.324.081.016.162.048.243.065a7.35,7.35,0,0,0,1.022.292c22.211,4.059,28.664-13.335,28.664-13.335-5.415,7.052-15.028,8.916-24.155,6.841q-.511-.121-1.022-.292a2.306,2.306,0,0,1-.26-.081c-.324-.1-.648-.211-.973-.324a1.119,1.119,0,0,1-.13-.048c-.292-.113-.583-.211-.859-.324l-.243-.1c-.308-.13-.632-.26-.94-.389a1.9,1.9,0,0,1-.178-.081c-.26-.113-.518-.243-.795-.373a1.482,1.482,0,0,1-.226-.113c-.195-.1-.405-.211-.616-.308-.13-.065-.275-.146-.405-.211-.243-.13-.487-.26-.73-.405-.081-.048-.162-.081-.243-.13-.324-.195-.632-.389-.957-.583-.081-.048-.178-.113-.26-.162-.226-.146-.453-.292-.679-.453-.081-.048-.146-.113-.211-.146-.211-.146-.422-.308-.632-.47-.1-.065-.195-.146-.275-.211-.195-.146-.389-.292-.583-.453-.081-.065-.178-.146-.26-.211-.243-.195-.487-.405-.713-.6-.032-.016-.048-.048-.081-.065-.26-.226-.5-.453-.762-.679a2.49,2.49,0,0,1-.211-.195c-.178-.178-.373-.357-.535-.535l-.211-.211c-.226-.226-.453-.47-.665-.713l-.032-.032c-.226-.26-.453-.5-.679-.762-.065-.065-.113-.146-.178-.211-.162-.195-.324-.405-.487-.6a2.772,2.772,0,0,1-.178-.226c-.195-.243-.373-.5-.567-.745-5.055-6.906-6.873-16.422-2.837-24.235" transform="translate(-20.622 -24.227)" fill="#fff"/><path d="M43.081,28.807c-3.32,4.782-3.145,11.185-.551,16.227a20.862,20.862,0,0,0,1.475,2.448,12.822,12.822,0,0,0,1.7,2.14c.243.26.487.519.745.778l.195.195c.243.243.5.47.762.713l.032.032h0c.292.26.583.5.892.73.065.048.13.113.195.162l.924.679c.016,0,.016.016.032.016.146.1.275.178.422.275a1.352,1.352,0,0,0,.195.13c.226.146.453.292.679.422a.339.339,0,0,1,.1.065c.195.113.405.226.616.34.065.032.146.081.211.113.146.081.275.146.422.226.016.016.048.016.065.032.292.146.583.275.892.422.065.032.13.048.195.081l.73.292c.1.032.211.081.308.113.226.081.453.162.665.226.1.032.195.065.308.1a6.662,6.662,0,0,0,.973.275C73.444,58.875,77.4,45.679,77.4,45.679c-3.567,5.139-10.472,7.587-17.848,5.674-.324-.081-.648-.178-.973-.275l-.292-.1c-.226-.081-.453-.146-.679-.243-.1-.032-.211-.081-.308-.113l-.73-.292c-.065-.032-.13-.048-.195-.081-.308-.13-.6-.275-.892-.422-.146-.065-.308-.146-.453-.226a1.935,1.935,0,0,0-.26-.13c-.195-.1-.373-.211-.567-.324a.906.906,0,0,1-.13-.081c-.226-.13-.453-.275-.679-.422-.065-.048-.146-.1-.211-.146l-.438-.292c-.324-.211-.616-.453-.924-.679a1.834,1.834,0,0,0-.211-.162,20.654,20.654,0,0,1-7-9.986,15.4,15.4,0,0,1,1.216-12.418" transform="translate(-25.522 -22.632)" fill="#fff"/><path d="M59.224,23.9a9.981,9.981,0,0,0-.795,9.645,13.469,13.469,0,0,0,7.8,7.278c.146.048.275.1.422.146a.914.914,0,0,1,.195.065c.195.065.405.13.616.178,9.467,1.832,12.028-4.863,12.725-5.852-2.253,3.245-6.03,4.02-10.667,2.885-.373-.081-.762-.226-1.118-.34a12.049,12.049,0,0,1-1.33-.551,13.232,13.232,0,0,1-2.335-1.425c-4.15-3.145-6.728-9.159-4.02-14.055" transform="translate(-29.685 -21.873)" fill="#fff"/></g></g></g></svg>